<svg width="714" height="174" viewBox="0 0 714 174" fill="none" xmlns="http://www.w3.org/2000/svg">
<mask id="mask0_25_1670" style="mask-type:alpha" maskUnits="userSpaceOnUse" x="0" y="9" width="156" height="156">
<rect y="9" width="156" height="156" rx="40" fill="white"/>
</mask>
<g mask="url(#mask0_25_1670)">
<path d="M79.8685 108.526C128.723 108.526 125.247 147.45 117.403 166.912C154.818 166.912 165.165 142.882 165.661 130.867L197.661 17.3311H157.744C135.402 17.3311 97.1462 83.2045 79.8685 108.526Z" fill="#FF5F5F"/>
<path d="M76.5792 65.0007C27.725 65.0007 31.2004 26.0762 39.0449 6.614C1.62973 6.614 -8.71703 30.6443 -9.21351 42.6594L-41.2135 156.195H-1.29604C21.0458 156.195 59.3016 90.3218 76.5792 65.0007Z" fill="#FCD638"/>
<path d="M71.2865 127.614H-3.2135C-3.2135 173.788 78.8919 208.778 93.7865 166.478C105.702 132.637 83.2865 127.614 71.2865 127.614Z" fill="#4B9BFF"/>
<path d="M33.8153 127.614H-3.2135C-3.2135 137.166 0.300109 146.239 6.00548 154.249C14.3848 150.146 24.1065 139.965 33.8153 127.614Z" fill="#38824D"/>
<path d="M84.2865 45.6145H158.786C158.786 -0.558983 76.6811 -35.5494 61.7865 6.75121C49.8708 40.5917 72.2865 45.615 84.2865 45.6145Z" fill="#50D2A0"/>
<path d="M149.951 19.5245C141.752 23.7432 132.308 33.6383 122.867 45.6145H158.786C158.786 36.2785 155.43 27.3997 149.951 19.5245Z" fill="#503C3C"/>
</g>
<path d="M262.479 65.952H227.663V49.056H292.687L252.751 114.976H288.975V132H222.287L262.479 65.952ZM328.317 117.792C330.536 117.792 332.456 117.365 334.077 116.512C335.784 115.659 337.192 114.549 338.301 113.184C339.496 111.733 340.349 110.069 340.861 108.192C341.458 106.229 341.757 104.181 341.757 102.048C341.757 99.9147 341.458 97.9093 340.861 96.032C340.349 94.0693 339.496 92.4053 338.301 91.04C337.192 89.5893 335.784 88.4373 334.077 87.584C332.456 86.7307 330.536 86.304 328.317 86.304C326.098 86.304 324.136 86.7307 322.429 87.584C320.808 88.4373 319.4 89.5893 318.205 91.04C317.096 92.4053 316.242 94.0693 315.645 96.032C315.048 97.9093 314.749 99.9147 314.749 102.048C314.749 104.181 315.048 106.229 315.645 108.192C316.242 110.069 317.096 111.733 318.205 113.184C319.4 114.549 320.808 115.659 322.429 116.512C324.136 117.365 326.098 117.792 328.317 117.792ZM328.317 133.92C323.453 133.92 319.058 133.109 315.133 131.488C311.293 129.781 307.965 127.52 305.149 124.704C302.418 121.803 300.328 118.432 298.877 114.592C297.426 110.667 296.701 106.485 296.701 102.048C296.701 97.6107 297.426 93.472 298.877 89.632C300.328 85.792 302.418 82.4213 305.149 79.52C307.965 76.6187 311.293 74.3573 315.133 72.736C319.058 71.0293 323.453 70.176 328.317 70.176C333.181 70.176 337.533 71.0293 341.373 72.736C345.298 74.3573 348.626 76.6187 351.357 79.52C354.173 82.4213 356.306 85.792 357.757 89.632C359.208 93.472 359.933 97.6107 359.933 102.048C359.933 106.485 359.208 110.667 357.757 114.592C356.306 118.432 354.173 121.803 351.357 124.704C348.626 127.52 345.298 129.781 341.373 131.488C337.533 133.109 333.181 133.92 328.317 133.92ZM398.442 117.792C400.661 117.792 402.581 117.365 404.202 116.512C405.909 115.659 407.317 114.549 408.426 113.184C409.621 111.733 410.474 110.069 410.986 108.192C411.583 106.229 411.882 104.181 411.882 102.048C411.882 99.9147 411.583 97.9093 410.986 96.032C410.474 94.0693 409.621 92.4053 408.426 91.04C407.317 89.5893 405.909 88.4373 404.202 87.584C402.581 86.7307 400.661 86.304 398.442 86.304C396.223 86.304 394.261 86.7307 392.554 87.584C390.933 88.4373 389.525 89.5893 388.33 91.04C387.221 92.4053 386.367 94.0693 385.77 96.032C385.173 97.9093 384.874 99.9147 384.874 102.048C384.874 104.181 385.173 106.229 385.77 108.192C386.367 110.069 387.221 111.733 388.33 113.184C389.525 114.549 390.933 115.659 392.554 116.512C394.261 117.365 396.223 117.792 398.442 117.792ZM398.442 133.92C393.578 133.92 389.183 133.109 385.258 131.488C381.418 129.781 378.09 127.52 375.274 124.704C372.543 121.803 370.453 118.432 369.002 114.592C367.551 110.667 366.826 106.485 366.826 102.048C366.826 97.6107 367.551 93.472 369.002 89.632C370.453 85.792 372.543 82.4213 375.274 79.52C378.09 76.6187 381.418 74.3573 385.258 72.736C389.183 71.0293 393.578 70.176 398.442 70.176C403.306 70.176 407.658 71.0293 411.498 72.736C415.423 74.3573 418.751 76.6187 421.482 79.52C424.298 82.4213 426.431 85.792 427.882 89.632C429.333 93.472 430.058 97.6107 430.058 102.048C430.058 106.485 429.333 110.667 427.882 114.592C426.431 118.432 424.298 121.803 421.482 124.704C418.751 127.52 415.423 129.781 411.498 131.488C407.658 133.109 403.306 133.92 398.442 133.92ZM427.479 49.056H490.071V65.696H468.311V132H449.367V65.696H427.479V49.056ZM519.387 117.792C521.606 117.792 523.526 117.365 525.147 116.512C526.854 115.659 528.262 114.549 529.371 113.184C530.566 111.733 531.419 110.069 531.931 108.192C532.528 106.229 532.827 104.181 532.827 102.048C532.827 99.9147 532.528 97.9093 531.931 96.032C531.419 94.0693 530.566 92.4053 529.371 91.04C528.262 89.5893 526.854 88.4373 525.147 87.584C523.526 86.7307 521.606 86.304 519.387 86.304C517.168 86.304 515.206 86.7307 513.499 87.584C511.878 88.4373 510.47 89.5893 509.275 91.04C508.166 92.4053 507.312 94.0693 506.715 96.032C506.118 97.9093 505.819 99.9147 505.819 102.048C505.819 104.181 506.118 106.229 506.715 108.192C507.312 110.069 508.166 111.733 509.275 113.184C510.47 114.549 511.878 115.659 513.499 116.512C515.206 117.365 517.168 117.792 519.387 117.792ZM519.387 133.92C514.523 133.92 510.128 133.109 506.203 131.488C502.363 129.781 499.035 127.52 496.219 124.704C493.488 121.803 491.398 118.432 489.947 114.592C488.496 110.667 487.771 106.485 487.771 102.048C487.771 97.6107 488.496 93.472 489.947 89.632C491.398 85.792 493.488 82.4213 496.219 79.52C499.035 76.6187 502.363 74.3573 506.203 72.736C510.128 71.0293 514.523 70.176 519.387 70.176C524.251 70.176 528.603 71.0293 532.443 72.736C536.368 74.3573 539.696 76.6187 542.427 79.52C545.243 82.4213 547.376 85.792 548.827 89.632C550.278 93.472 551.003 97.6107 551.003 102.048C551.003 106.485 550.278 110.667 548.827 114.592C547.376 118.432 545.243 121.803 542.427 124.704C539.696 127.52 536.368 129.781 532.443 131.488C528.603 133.109 524.251 133.92 519.387 133.92ZM589.512 117.792C591.731 117.792 593.651 117.365 595.272 116.512C596.979 115.659 598.387 114.549 599.496 113.184C600.691 111.733 601.544 110.069 602.056 108.192C602.653 106.229 602.952 104.181 602.952 102.048C602.952 99.9147 602.653 97.9093 602.056 96.032C601.544 94.0693 600.691 92.4053 599.496 91.04C598.387 89.5893 596.979 88.4373 595.272 87.584C593.651 86.7307 591.731 86.304 589.512 86.304C587.293 86.304 585.331 86.7307 583.624 87.584C582.003 88.4373 580.595 89.5893 579.4 91.04C578.291 92.4053 577.437 94.0693 576.84 96.032C576.243 97.9093 575.944 99.9147 575.944 102.048C575.944 104.181 576.243 106.229 576.84 108.192C577.437 110.069 578.291 111.733 579.4 113.184C580.595 114.549 582.003 115.659 583.624 116.512C585.331 117.365 587.293 117.792 589.512 117.792ZM589.512 133.92C584.648 133.92 580.253 133.109 576.328 131.488C572.488 129.781 569.16 127.52 566.344 124.704C563.613 121.803 561.523 118.432 560.072 114.592C558.621 110.667 557.896 106.485 557.896 102.048C557.896 97.6107 558.621 93.472 560.072 89.632C561.523 85.792 563.613 82.4213 566.344 79.52C569.16 76.6187 572.488 74.3573 576.328 72.736C580.253 71.0293 584.648 70.176 589.512 70.176C594.376 70.176 598.728 71.0293 602.568 72.736C606.493 74.3573 609.821 76.6187 612.552 79.52C615.368 82.4213 617.501 85.792 618.952 89.632C620.403 93.472 621.128 97.6107 621.128 102.048C621.128 106.485 620.403 110.667 618.952 114.592C617.501 118.432 615.368 121.803 612.552 124.704C609.821 127.52 606.493 129.781 602.568 131.488C598.728 133.109 594.376 133.92 589.512 133.92ZM630.453 39.84H649.397V132H630.453V39.84ZM667.096 113.184C669.4 114.635 672.173 116.085 675.416 117.536C678.744 118.987 682.2 119.712 685.784 119.712C690.136 119.712 692.312 118.304 692.312 115.488C692.312 114.037 691.672 112.971 690.392 112.288C689.197 111.52 687.491 110.709 685.272 109.856L679 107.424C676.525 106.571 674.307 105.632 672.344 104.608C670.467 103.499 668.803 102.219 667.352 100.768C665.987 99.232 664.92 97.5253 664.152 95.648C663.469 93.6853 663.128 91.3387 663.128 88.608C663.128 85.9627 663.64 83.5307 664.664 81.312C665.773 79.008 667.309 77.0453 669.272 75.424C671.235 73.8027 673.581 72.5227 676.312 71.584C679.128 70.6453 682.243 70.176 685.656 70.176C690.605 70.176 694.744 70.8587 698.072 72.224C701.4 73.5893 704.429 75.1253 707.16 76.832L701.144 88.736C699.437 87.8827 697.219 86.9013 694.488 85.792C691.843 84.6827 689.24 84.128 686.68 84.128C684.803 84.128 683.309 84.5547 682.2 85.408C681.176 86.176 680.664 87.2 680.664 88.48C680.664 89.9307 681.133 91.04 682.072 91.808C683.011 92.4907 684.589 93.2587 686.808 94.112L692.824 96.288C695.299 97.1413 697.603 98.0373 699.736 98.976C701.869 99.9147 703.704 101.067 705.24 102.432C706.861 103.712 708.099 105.291 708.952 107.168C709.891 108.96 710.36 111.179 710.36 113.824C710.36 116.64 709.848 119.285 708.824 121.76C707.8 124.149 706.307 126.283 704.344 128.16C702.381 129.952 699.907 131.36 696.92 132.384C694.019 133.408 690.605 133.92 686.68 133.92C681.304 133.92 676.397 133.109 671.96 131.488C667.523 129.781 663.725 127.947 660.568 125.984L667.096 113.184Z" fill="#333333"/>
</svg>
